<svg xmlns="http://www.w3.org/2000/svg" xmlns:xlink="http://www.w3.org/1999/xlink" zoomAndPan="magnify" preserveAspectRatio="xMidYMid meet" version="1.0" viewBox="58.51 122.25 256.04 79.89"><defs><g/><clipPath id="c9a515982a"><path d="M 219.542969 130 L 228 130 L 228 151 L 219.542969 151 Z M 219.542969 130 " clip-rule="nonzero"/></clipPath><clipPath id="108c3bfc08"><path d="M 229 122.253906 L 284.792969 122.253906 L 284.792969 165.753906 L 229 165.753906 Z M 229 122.253906 " clip-rule="nonzero"/></clipPath></defs><g clip-path="url(#c9a515982a)"><path fill="#000000" d="M 226.222656 131.160156 C 224.144531 132.339844 222.664062 134.347656 222.164062 136.671875 L 219.691406 148.132812 C 219.539062 148.835938 219.882812 149.550781 220.53125 149.871094 L 221.109375 150.15625 C 221.472656 150.335938 221.878906 150.371094 222.257812 150.261719 L 227.914062 130.199219 Z M 226.222656 131.160156 " fill-opacity="1" fill-rule="nonzero"/></g><path fill="#000000" d="M 234.585938 124.546875 C 233.164062 124.546875 231.902344 125.496094 231.519531 126.855469 L 229.761719 133.089844 L 238.363281 124.546875 Z M 234.585938 124.546875 " fill-opacity="1" fill-rule="nonzero"/><path fill="#000000" d="M 227.5625 140.898438 L 224.566406 151.515625 C 224.375 152.199219 224.476562 152.910156 224.847656 153.515625 C 225.222656 154.121094 225.816406 154.535156 226.519531 154.671875 C 227.476562 154.863281 228.46875 154.484375 229.054688 153.710938 L 231.453125 150.53125 C 231.480469 150.5 231.507812 150.46875 231.535156 150.4375 L 227.894531 141.851562 C 227.761719 141.539062 227.652344 141.21875 227.5625 140.898438 Z M 227.5625 140.898438 " fill-opacity="1" fill-rule="nonzero"/><g clip-path="url(#108c3bfc08)"><path fill="#000000" d="M 280.5 124.03125 C 279.765625 122.863281 278.363281 122.28125 277.007812 122.582031 C 272.203125 123.644531 263.660156 125.761719 263.574219 125.785156 C 263.386719 125.828125 263.195312 125.835938 263.011719 125.796875 L 248.332031 122.882812 C 245.898438 122.398438 243.398438 123.152344 241.640625 124.894531 L 231.402344 135.0625 C 229.863281 136.59375 229.414062 138.871094 230.257812 140.863281 L 236.96875 156.691406 C 237.308594 157.488281 237.945312 158.09375 238.761719 158.394531 C 239.582031 158.695312 240.460938 158.648438 241.242188 158.257812 C 242.652344 157.558594 243.316406 155.917969 242.785156 154.445312 L 239.507812 145.328125 C 238.242188 141.8125 239.496094 137.839844 242.554688 135.671875 C 244.035156 134.621094 245.753906 134.101562 247.46875 134.101562 C 249.433594 134.101562 251.390625 134.78125 252.96875 136.128906 L 254.757812 137.648438 C 256.917969 139.488281 257.996094 142.261719 257.644531 145.0625 C 257.085938 149.507812 254.867188 153.53125 251.40625 156.398438 C 250.082031 157.496094 249.433594 159.226562 249.71875 160.917969 L 249.898438 161.996094 C 250.140625 163.445312 251.160156 164.628906 252.5625 165.09375 C 254.507812 165.738281 256.667969 164.777344 257.472656 162.90625 L 257.507812 162.820312 C 259.1875 158.984375 262.679688 156.246094 266.859375 155.488281 L 268.5 155.195312 C 272.8125 154.414062 276.578125 151.828125 278.835938 148.09375 C 278.960938 147.886719 279.144531 147.71875 279.359375 147.609375 C 282.128906 146.234375 284.007812 143.480469 284.261719 140.417969 L 284.324219 139.695312 C 284.78125 134.238281 283.425781 128.675781 280.5 124.03125 Z M 280.5 124.03125 " fill-opacity="1" fill-rule="nonzero"/></g><g fill="#000000" fill-opacity="1"><g transform="translate(57.342052, 201.374987)"><g><path d="M 18.640625 -43.015625 C 20.921875 -43.015625 23.15625 -42.679688 25.34375 -42.015625 C 27.53125 -41.347656 29.148438 -40.691406 30.203125 -40.046875 L 31.75 -39.015625 L 27.859375 -31.34375 C 27.546875 -31.539062 27.113281 -31.800781 26.5625 -32.125 C 26.019531 -32.445312 25 -32.878906 23.5 -33.421875 C 22 -33.972656 20.597656 -34.25 19.296875 -34.25 C 17.691406 -34.25 16.453125 -33.90625 15.578125 -33.21875 C 14.710938 -32.539062 14.28125 -31.625 14.28125 -30.46875 C 14.28125 -29.882812 14.484375 -29.34375 14.890625 -28.84375 C 15.304688 -28.351562 16.007812 -27.828125 17 -27.265625 C 17.988281 -26.703125 18.859375 -26.25 19.609375 -25.90625 C 20.359375 -25.5625 21.519531 -25.050781 23.09375 -24.375 C 25.820312 -23.207031 28.148438 -21.625 30.078125 -19.625 C 32.003906 -17.632812 32.96875 -15.378906 32.96875 -12.859375 C 32.96875 -10.429688 32.53125 -8.3125 31.65625 -6.5 C 30.789062 -4.6875 29.597656 -3.269531 28.078125 -2.25 C 26.566406 -1.226562 24.890625 -0.472656 23.046875 0.015625 C 21.203125 0.515625 19.203125 0.765625 17.046875 0.765625 C 15.203125 0.765625 13.390625 0.578125 11.609375 0.203125 C 9.835938 -0.171875 8.351562 -0.640625 7.15625 -1.203125 C 5.96875 -1.765625 4.894531 -2.316406 3.9375 -2.859375 C 2.988281 -3.410156 2.289062 -3.875 1.84375 -4.25 L 1.171875 -4.8125 L 5.984375 -12.90625 C 6.398438 -12.5625 6.960938 -12.125 7.671875 -11.59375 C 8.390625 -11.0625 9.660156 -10.351562 11.484375 -9.46875 C 13.316406 -8.582031 14.929688 -8.140625 16.328125 -8.140625 C 20.390625 -8.140625 22.421875 -9.519531 22.421875 -12.28125 C 22.421875 -12.863281 22.273438 -13.398438 21.984375 -13.890625 C 21.703125 -14.390625 21.191406 -14.882812 20.453125 -15.375 C 19.722656 -15.875 19.078125 -16.269531 18.515625 -16.5625 C 17.953125 -16.851562 17.03125 -17.296875 15.75 -17.890625 C 14.46875 -18.492188 13.519531 -18.945312 12.90625 -19.25 C 10.34375 -20.507812 8.359375 -22.085938 6.953125 -23.984375 C 5.554688 -25.878906 4.859375 -27.921875 4.859375 -30.109375 C 4.859375 -33.898438 6.257812 -37 9.0625 -39.40625 C 11.863281 -41.8125 15.054688 -43.015625 18.640625 -43.015625 Z M 18.640625 -43.015625 "/></g></g></g><g fill="#000000" fill-opacity="1"><g transform="translate(88.316606, 201.374987)"><g><path d="M 3.078125 0 L 3.078125 -26.265625 L 12.140625 -26.265625 L 12.140625 -23.5 L 12.234375 -23.5 C 14.585938 -25.851562 17.097656 -27.03125 19.765625 -27.03125 C 21.671875 -27.03125 23.460938 -26.640625 25.140625 -25.859375 C 26.816406 -25.078125 28.082031 -23.863281 28.9375 -22.21875 C 31.59375 -25.425781 34.492188 -27.03125 37.640625 -27.03125 C 40.429688 -27.03125 42.832031 -26.242188 44.84375 -24.671875 C 46.863281 -23.109375 47.875 -20.65625 47.875 -17.3125 L 47.875 0 L 38.8125 0 L 38.8125 -14.84375 C 38.8125 -16.25 38.425781 -17.421875 37.65625 -18.359375 C 36.882812 -19.296875 35.734375 -19.765625 34.203125 -19.765625 C 32.867188 -19.765625 31.851562 -19.363281 31.15625 -18.5625 C 30.457031 -17.757812 30.070312 -16.796875 30 -15.671875 L 30 0 L 20.9375 0 L 20.9375 -14.84375 C 20.9375 -16.25 20.550781 -17.421875 19.78125 -18.359375 C 19.019531 -19.296875 17.867188 -19.765625 16.328125 -19.765625 C 14.929688 -19.765625 13.882812 -19.328125 13.1875 -18.453125 C 12.488281 -17.585938 12.140625 -16.554688 12.140625 -15.359375 L 12.140625 0 Z M 3.078125 0 "/></g></g></g><g fill="#000000" fill-opacity="1"><g transform="translate(135.316515, 201.374987)"><g><path d="M 4.859375 -3.25 C 2.398438 -5.925781 1.171875 -9.207031 1.171875 -13.09375 C 1.171875 -16.988281 2.398438 -20.285156 4.859375 -22.984375 C 7.316406 -25.679688 10.441406 -27.03125 14.234375 -27.03125 C 17.710938 -27.03125 20.582031 -25.941406 22.84375 -23.765625 L 22.84375 -26.265625 L 31.90625 -26.265625 L 31.90625 0 L 22.9375 0 L 22.9375 -2.96875 L 22.84375 -2.96875 C 20.582031 -0.476562 17.710938 0.765625 14.234375 0.765625 C 10.441406 0.765625 7.316406 -0.570312 4.859375 -3.25 Z M 12.5625 -17.5625 C 11.382812 -16.40625 10.796875 -14.921875 10.796875 -13.109375 C 10.796875 -11.296875 11.359375 -9.816406 12.484375 -8.671875 C 13.617188 -7.535156 15.109375 -6.96875 16.953125 -6.96875 C 18.722656 -6.96875 20.179688 -7.546875 21.328125 -8.703125 C 22.472656 -9.867188 23.046875 -11.335938 23.046875 -13.109375 C 23.046875 -14.921875 22.457031 -16.40625 21.28125 -17.5625 C 20.101562 -18.71875 18.660156 -19.296875 16.953125 -19.296875 C 15.210938 -19.296875 13.75 -18.71875 12.5625 -17.5625 Z M 12.5625 -17.5625 "/></g></g></g><g fill="#000000" fill-opacity="1"><g transform="translate(166.854255, 201.374987)"><g><path d="M 3.078125 0 L 3.078125 -26.265625 L 12.140625 -26.265625 L 12.140625 -22.484375 L 12.234375 -22.484375 C 12.304688 -22.617188 12.414062 -22.785156 12.5625 -22.984375 C 12.71875 -23.191406 13.050781 -23.550781 13.5625 -24.0625 C 14.082031 -24.570312 14.628906 -25.03125 15.203125 -25.4375 C 15.785156 -25.851562 16.535156 -26.222656 17.453125 -26.546875 C 18.378906 -26.867188 19.320312 -27.03125 20.28125 -27.03125 C 21.269531 -27.03125 22.238281 -26.894531 23.1875 -26.625 C 24.144531 -26.351562 24.847656 -26.082031 25.296875 -25.8125 L 26.015625 -25.390625 L 22.21875 -17.71875 C 21.09375 -18.675781 19.523438 -19.15625 17.515625 -19.15625 C 16.421875 -19.15625 15.476562 -18.914062 14.6875 -18.4375 C 13.90625 -17.957031 13.351562 -17.375 13.03125 -16.6875 C 12.707031 -16.007812 12.476562 -15.429688 12.34375 -14.953125 C 12.207031 -14.472656 12.140625 -14.097656 12.140625 -13.828125 L 12.140625 0 Z M 3.078125 0 "/></g></g></g><g fill="#000000" fill-opacity="1"><g transform="translate(188.920134, 201.374987)"><g><path d="M 4.609375 -26.265625 L 4.609375 -36.046875 L 13.671875 -36.046875 L 13.671875 -26.265625 L 19.203125 -26.265625 L 19.203125 -19.359375 L 13.671875 -19.359375 L 13.671875 -11.015625 C 13.671875 -8.585938 14.351562 -7.375 15.71875 -7.375 C 16.0625 -7.375 16.421875 -7.441406 16.796875 -7.578125 C 17.171875 -7.710938 17.460938 -7.847656 17.671875 -7.984375 L 17.96875 -8.1875 L 20.21875 -0.875 C 18.28125 0.21875 16.0625 0.765625 13.5625 0.765625 C 11.863281 0.765625 10.398438 0.46875 9.171875 -0.125 C 7.941406 -0.726562 7.007812 -1.53125 6.375 -2.53125 C 5.738281 -3.539062 5.285156 -4.597656 5.015625 -5.703125 C 4.742188 -6.816406 4.609375 -8.003906 4.609375 -9.265625 L 4.609375 -19.359375 L 0.8125 -19.359375 L 0.8125 -26.265625 Z M 4.609375 -26.265625 "/></g></g></g><g fill="#000000" fill-opacity="1"><g transform="translate(205.712483, 201.374987)"><g><path d="M 3.078125 -42.25 L 18.484375 -42.25 C 22.785156 -42.25 26.265625 -41.140625 28.921875 -38.921875 C 31.585938 -36.703125 32.921875 -33.472656 32.921875 -29.234375 C 32.921875 -25.003906 31.570312 -21.6875 28.875 -19.28125 C 26.175781 -16.875 22.710938 -15.671875 18.484375 -15.671875 L 12.703125 -15.671875 L 12.703125 0 L 3.078125 0 Z M 12.703125 -23.34375 L 15.40625 -23.34375 C 17.5625 -23.34375 19.328125 -23.773438 20.703125 -24.640625 C 22.085938 -25.515625 22.78125 -26.945312 22.78125 -28.9375 C 22.78125 -30.945312 22.085938 -32.382812 20.703125 -33.25 C 19.328125 -34.125 17.5625 -34.5625 15.40625 -34.5625 L 12.703125 -34.5625 Z M 12.703125 -23.34375 "/></g></g></g><g fill="#000000" fill-opacity="1"><g transform="translate(236.379832, 201.374987)"><g><path d="M 3.9375 -40.90625 C 5 -41.96875 6.265625 -42.5 7.734375 -42.5 C 9.203125 -42.5 10.460938 -41.96875 11.515625 -40.90625 C 12.578125 -39.851562 13.109375 -38.59375 13.109375 -37.125 C 13.109375 -35.65625 12.578125 -34.390625 11.515625 -33.328125 C 10.460938 -32.273438 9.203125 -31.75 7.734375 -31.75 C 6.265625 -31.75 5 -32.273438 3.9375 -33.328125 C 2.882812 -34.390625 2.359375 -35.65625 2.359375 -37.125 C 2.359375 -38.59375 2.882812 -39.851562 3.9375 -40.90625 Z M 3.078125 -26.265625 L 3.078125 0 L 12.140625 0 L 12.140625 -26.265625 Z M 3.078125 -26.265625 "/></g></g></g><g fill="#000000" fill-opacity="1"><g transform="translate(248.410662, 201.374987)"><g><path d="M 17.046875 -19.609375 C 15.335938 -19.609375 13.867188 -18.976562 12.640625 -17.71875 C 11.410156 -16.457031 10.796875 -14.9375 10.796875 -13.15625 C 10.796875 -11.351562 11.410156 -9.816406 12.640625 -8.546875 C 13.867188 -7.285156 15.335938 -6.65625 17.046875 -6.65625 C 17.867188 -6.65625 18.644531 -6.753906 19.375 -6.953125 C 20.113281 -7.160156 20.65625 -7.367188 21 -7.578125 L 21.453125 -7.890625 L 24.53125 -1.59375 C 24.289062 -1.414062 23.957031 -1.195312 23.53125 -0.9375 C 23.101562 -0.6875 22.128906 -0.34375 20.609375 0.09375 C 19.085938 0.539062 17.457031 0.765625 15.71875 0.765625 C 11.863281 0.765625 8.472656 -0.585938 5.546875 -3.296875 C 2.628906 -6.015625 1.171875 -9.269531 1.171875 -13.0625 C 1.171875 -16.882812 2.628906 -20.164062 5.546875 -22.90625 C 8.472656 -25.65625 11.863281 -27.03125 15.71875 -27.03125 C 17.457031 -27.03125 19.0625 -26.828125 20.53125 -26.421875 C 22 -26.015625 23.039062 -25.601562 23.65625 -25.1875 L 24.53125 -24.578125 L 21.453125 -18.375 C 20.328125 -19.195312 18.859375 -19.609375 17.046875 -19.609375 Z M 17.046875 -19.609375 "/></g></g></g><g fill="#000000" fill-opacity="1"><g transform="translate(270.118146, 201.374987)"><g><path d="M 33.078125 -26.265625 L 20.578125 -13.71875 L 34.3125 0 L 22.625 0 L 12.140625 -10.5 L 12.140625 0 L 3.078125 0 L 3.078125 -44.03125 L 12.140625 -44.03125 L 12.140625 -17.109375 L 21.296875 -26.265625 Z M 33.078125 -26.265625 "/></g></g></g><g fill="#000000" fill-opacity="1"><g transform="translate(299.7615, 201.374987)"><g><path d="M 8.90625 -10.953125 C 10.539062 -10.953125 11.929688 -10.378906 13.078125 -9.234375 C 14.222656 -8.097656 14.796875 -6.707031 14.796875 -5.0625 C 14.796875 -3.457031 14.222656 -2.082031 13.078125 -0.9375 C 11.929688 0.195312 10.539062 0.765625 8.90625 0.765625 C 7.300781 0.765625 5.925781 0.195312 4.78125 -0.9375 C 3.644531 -2.082031 3.078125 -3.457031 3.078125 -5.0625 C 3.078125 -6.707031 3.644531 -8.097656 4.78125 -9.234375 C 5.925781 -10.378906 7.300781 -10.953125 8.90625 -10.953125 Z M 8.90625 -10.953125 "/></g></g></g></svg>